<svg width="45" height="45" viewBox="0 0 45 45" fill="none" xmlns="http://www.w3.org/2000/svg">
<path d="M4.21875 8.4375V35.1562H18.2812C19.8309 35.1562 21.0938 36.4191 21.0938 37.9688H23.9062C23.9062 36.4191 25.1691 35.1562 26.7188 35.1562H40.7812V8.4375H26.7188C25.9201 8.43851 25.1308 8.60959 24.4034 8.93935C23.676 9.26911 23.0271 9.74999 22.5 10.35C21.9729 9.74999 21.324 9.26911 20.5966 8.93935C19.8692 8.60959 19.0799 8.43851 18.2812 8.4375H4.21875ZM7.03125 11.25H18.2812C19.8309 11.25 21.0938 12.5128 21.0938 14.0625H23.9062C23.9062 12.5128 25.1691 11.25 26.7188 11.25H37.9688V32.3438H26.7188C25.9201 32.3448 25.1308 32.5158 24.4034 32.8456C23.676 33.1754 23.0271 33.6562 22.5 34.2563C21.9729 33.6562 21.324 33.1754 20.5966 32.8456C19.8692 32.5158 19.0799 32.3448 18.2812 32.3438H7.03125V11.25ZM21.0938 16.875V19.6875H23.9062V16.875H21.0938ZM21.0938 22.5V25.3125H23.9062V22.5H21.0938ZM21.0938 28.125V30.9375H23.9062V28.125H21.0938Z" fill="#757575"/>
</svg>
