<svg width="45" height="45" viewBox="0 0 45 45" fill="none" xmlns="http://www.w3.org/2000/svg">
<path d="M12.6562 5.625V7.03125H7.03125V37.9688H37.9688V7.03125H32.3438V5.625H29.5312V7.03125H15.4688V5.625H12.6562ZM9.84375 9.84375H12.6562V11.25H15.4688V9.84375H29.5312V11.25H32.3438V9.84375H35.1562V12.6562H9.84375V9.84375ZM9.84375 15.4688H35.1562V35.1562H9.84375V15.4688ZM18.2812 18.2812V21.0938H21.0938V18.2812H18.2812ZM23.9062 18.2812V21.0938H26.7188V18.2812H23.9062ZM29.5312 18.2812V21.0938H32.3438V18.2812H29.5312ZM12.6562 23.9062V26.7188H15.4688V23.9062H12.6562ZM18.2812 23.9062V26.7188H21.0938V23.9062H18.2812ZM23.9062 23.9062V26.7188H26.7188V23.9062H23.9062ZM29.5312 23.9062V26.7188H32.3438V23.9062H29.5312ZM12.6562 29.5312V32.3438H32.3438V29.5312H12.6562Z" fill="#757575"/>
</svg>
