<svg width="45" height="45" viewBox="0 0 45 45" fill="none" xmlns="http://www.w3.org/2000/svg">
<path d="M16.1719 8.4375L15.7317 9.00844L14.0625 11.25H4.21875V36.5625H40.7812V11.25H30.9375L29.2669 9.00844L28.8281 8.4375H16.1719ZM17.5781 11.25H27.4219L29.0925 13.4916L29.5312 14.0625H37.9688V33.75H7.03125V14.0625H15.4688L15.9089 13.4916L17.5781 11.25ZM11.25 15.4688C10.4766 15.4688 9.84375 16.1016 9.84375 16.875C9.84375 17.6484 10.4766 18.2812 11.25 18.2812C12.0234 18.2812 12.6562 17.6484 12.6562 16.875C12.6562 16.1016 12.0234 15.4688 11.25 15.4688ZM22.5 15.4688C17.8594 15.4688 14.0625 19.2656 14.0625 23.9062C14.0625 28.5469 17.8594 32.3438 22.5 32.3438C27.1406 32.3438 30.9375 28.5469 30.9375 23.9062C30.9375 19.2656 27.1406 15.4688 22.5 15.4688ZM22.5 18.2812C25.6261 18.2812 28.125 20.7802 28.125 23.9062C28.125 27.0323 25.6261 29.5312 22.5 29.5312C19.3739 29.5312 16.875 27.0323 16.875 23.9062C16.875 20.7802 19.3739 18.2812 22.5 18.2812Z" fill="#757575"/>
</svg>
