<svg width="40" height="40" viewBox="0 0 40 40" fill="none" xmlns="http://www.w3.org/2000/svg">
<path d="M31.25 5.03885C30.2925 5.03885 29.355 5.4101 28.6325 6.1326L16.25 18.4763L15.9762 18.7501L15.8988 19.1413L15.0387 23.5163L14.6488 25.3513L16.485 24.9613L20.86 24.1013L21.25 24.0238L21.5238 23.7501L33.8675 11.3676C34.3848 10.8489 34.7371 10.1887 34.8797 9.47014C35.0224 8.75159 34.9492 8.00688 34.6692 7.3299C34.3893 6.65291 33.9152 6.07396 33.3067 5.66602C32.6982 5.25808 31.9826 5.04067 31.25 5.03885ZM31.25 7.46135C31.5425 7.46135 31.8312 7.61135 32.11 7.8901C32.6663 8.4476 32.6663 9.0526 32.11 9.60885L20 21.7201L17.8512 22.1501L18.2812 20.0013L30.3913 7.89135C30.6687 7.61385 30.9575 7.46135 31.25 7.46135ZM5 10.0001V35.0001H30V18.5151L27.5 21.0151V32.5001H7.5V12.5001H18.985L21.485 10.0001H5Z" fill="#7D4BD5"/>
</svg>
