<svg width="362" height="292" viewBox="0 0 362 292" fill="none" xmlns="http://www.w3.org/2000/svg">
<rect width="362" height="292" rx="12" fill="white"/>
<path d="M126.072 46.4545V61H122.997V46.4545H126.072ZM131.571 54.6932V61H128.545V50.0909H131.429V52.0156H131.557C131.798 51.3812 132.203 50.8793 132.771 50.5099C133.339 50.1359 134.028 49.9489 134.838 49.9489C135.595 49.9489 136.256 50.1146 136.819 50.446C137.383 50.7775 137.821 51.2509 138.133 51.8665C138.446 52.4773 138.602 53.2064 138.602 54.054V61H135.577V54.5938C135.581 53.9261 135.411 53.4053 135.065 53.0312C134.72 52.6525 134.244 52.4631 133.638 52.4631C133.23 52.4631 132.871 52.5507 132.558 52.7259C132.25 52.901 132.009 53.1567 131.834 53.4929C131.663 53.8243 131.576 54.2244 131.571 54.6932ZM146.789 50.0909V52.3636H140.22V50.0909H146.789ZM141.711 47.4773H144.737V57.6477C144.737 57.9271 144.779 58.1449 144.865 58.3011C144.95 58.4527 145.068 58.5592 145.22 58.6207C145.376 58.6823 145.556 58.7131 145.759 58.7131C145.901 58.7131 146.044 58.7012 146.186 58.6776C146.328 58.6491 146.436 58.6278 146.512 58.6136L146.988 60.8651C146.837 60.9124 146.624 60.9669 146.349 61.0284C146.074 61.0947 145.74 61.1349 145.347 61.1491C144.618 61.1776 143.979 61.0805 143.43 60.858C142.885 60.6354 142.462 60.2898 142.159 59.821C141.856 59.3523 141.706 58.7604 141.711 58.0455V47.4773ZM153.615 61.2131C152.492 61.2131 151.526 60.9858 150.717 60.5312C149.912 60.072 149.292 59.4233 148.856 58.5852C148.42 57.7424 148.203 56.7457 148.203 55.5952C148.203 54.473 148.42 53.4882 148.856 52.6406C149.292 51.7931 149.905 51.1326 150.695 50.6591C151.491 50.1856 152.424 49.9489 153.494 49.9489C154.213 49.9489 154.883 50.0649 155.504 50.2969C156.129 50.5241 156.673 50.8674 157.137 51.3267C157.606 51.786 157.971 52.3636 158.231 53.0597C158.491 53.7509 158.622 54.5606 158.622 55.4886V56.3196H149.41V54.4446H155.774C155.774 54.009 155.679 53.6231 155.49 53.2869C155.3 52.9508 155.037 52.688 154.701 52.4986C154.37 52.3045 153.984 52.2074 153.544 52.2074C153.084 52.2074 152.677 52.3139 152.322 52.527C151.972 52.7353 151.697 53.017 151.498 53.3722C151.299 53.7225 151.197 54.1132 151.193 54.544V56.3267C151.193 56.8665 151.292 57.3329 151.491 57.7259C151.695 58.1188 151.981 58.4219 152.35 58.6349C152.72 58.848 153.158 58.9545 153.664 58.9545C154 58.9545 154.308 58.9072 154.588 58.8125C154.867 58.7178 155.106 58.5758 155.305 58.3864C155.504 58.197 155.655 57.965 155.759 57.6903L158.558 57.875C158.416 58.5473 158.124 59.1345 157.684 59.6364C157.249 60.1335 156.685 60.5218 155.994 60.8011C155.307 61.0758 154.514 61.2131 153.615 61.2131ZM166.399 50.0909V52.3636H159.829V50.0909H166.399ZM161.32 47.4773H164.346V57.6477C164.346 57.9271 164.389 58.1449 164.474 58.3011C164.559 58.4527 164.677 58.5592 164.829 58.6207C164.985 58.6823 165.165 58.7131 165.369 58.7131C165.511 58.7131 165.653 58.7012 165.795 58.6776C165.937 58.6491 166.046 58.6278 166.122 58.6136L166.597 60.8651C166.446 60.9124 166.233 60.9669 165.958 61.0284C165.684 61.0947 165.35 61.1349 164.957 61.1491C164.228 61.1776 163.588 61.0805 163.039 60.858C162.495 60.6354 162.071 60.2898 161.768 59.821C161.465 59.3523 161.316 58.7604 161.32 58.0455V47.4773ZM177.97 61.2131C176.848 61.2131 175.882 60.9858 175.072 60.5312C174.267 60.072 173.647 59.4233 173.211 58.5852C172.776 57.7424 172.558 56.7457 172.558 55.5952C172.558 54.473 172.776 53.4882 173.211 52.6406C173.647 51.7931 174.26 51.1326 175.051 50.6591C175.846 50.1856 176.779 49.9489 177.849 49.9489C178.569 49.9489 179.239 50.0649 179.859 50.2969C180.484 50.5241 181.029 50.8674 181.493 51.3267C181.961 51.786 182.326 52.3636 182.586 53.0597C182.847 53.7509 182.977 54.5606 182.977 55.4886V56.3196H173.765V54.4446H180.129C180.129 54.009 180.034 53.6231 179.845 53.2869C179.656 52.9508 179.393 52.688 179.057 52.4986C178.725 52.3045 178.339 52.2074 177.899 52.2074C177.44 52.2074 177.032 52.3139 176.677 52.527C176.327 52.7353 176.052 53.017 175.854 53.3722C175.655 53.7225 175.553 54.1132 175.548 54.544V56.3267C175.548 56.8665 175.648 57.3329 175.846 57.7259C176.05 58.1188 176.336 58.4219 176.706 58.6349C177.075 58.848 177.513 58.9545 178.02 58.9545C178.356 58.9545 178.664 58.9072 178.943 58.8125C179.222 58.7178 179.461 58.5758 179.66 58.3864C179.859 58.197 180.011 57.965 180.115 57.6903L182.913 57.875C182.771 58.5473 182.48 59.1345 182.04 59.6364C181.604 60.1335 181.041 60.5218 180.349 60.8011C179.663 61.0758 178.87 61.2131 177.97 61.2131ZM187.977 54.6932V61H184.952V50.0909H187.835V52.0156H187.963C188.204 51.3812 188.609 50.8793 189.177 50.5099C189.746 50.1359 190.434 49.9489 191.244 49.9489C192.002 49.9489 192.662 50.1146 193.226 50.446C193.789 50.7775 194.227 51.2509 194.54 51.8665C194.852 52.4773 195.008 53.2064 195.008 54.054V61H191.983V54.5938C191.988 53.9261 191.817 53.4053 191.471 53.0312C191.126 52.6525 190.65 52.4631 190.044 52.4631C189.637 52.4631 189.277 52.5507 188.964 52.7259C188.657 52.901 188.415 53.1567 188.24 53.4929C188.069 53.8243 187.982 54.2244 187.977 54.6932ZM201.413 61.1776C200.584 61.1776 199.834 60.9645 199.161 60.5384C198.494 60.1075 197.963 59.4754 197.57 58.642C197.182 57.804 196.988 56.7765 196.988 55.5597C196.988 54.3097 197.189 53.2704 197.592 52.4418C197.994 51.6084 198.529 50.9858 199.197 50.5739C199.869 50.1572 200.606 49.9489 201.406 49.9489C202.017 49.9489 202.526 50.053 202.933 50.2614C203.345 50.465 203.676 50.7206 203.927 51.0284C204.183 51.3314 204.377 51.6297 204.509 51.9233H204.602V46.4545H207.62V61H204.637V59.2528H204.509C204.367 59.5559 204.166 59.8565 203.906 60.1548C203.65 60.4484 203.316 60.6922 202.904 60.8864C202.497 61.0805 202 61.1776 201.413 61.1776ZM202.372 58.7699C202.859 58.7699 203.271 58.6373 203.607 58.3722C203.948 58.1023 204.209 57.7259 204.389 57.2429C204.573 56.7599 204.666 56.1941 204.666 55.5455C204.666 54.8968 204.576 54.3333 204.396 53.8551C204.216 53.3769 203.955 53.0076 203.615 52.7472C203.274 52.4867 202.859 52.3565 202.372 52.3565C201.874 52.3565 201.455 52.4915 201.115 52.7614C200.774 53.0312 200.516 53.4053 200.34 53.8835C200.165 54.3617 200.078 54.9157 200.078 55.5455C200.078 56.1799 200.165 56.741 200.34 57.2287C200.52 57.7116 200.778 58.0904 201.115 58.3651C201.455 58.6349 201.874 58.7699 202.372 58.7699ZM213.133 54.6932V61H210.108V50.0909H212.991V52.0156H213.119C213.361 51.3812 213.765 50.8793 214.334 50.5099C214.902 50.1359 215.591 49.9489 216.4 49.9489C217.158 49.9489 217.818 50.1146 218.382 50.446C218.945 50.7775 219.383 51.2509 219.696 51.8665C220.008 52.4773 220.165 53.2064 220.165 54.054V61H217.139V54.5938C217.144 53.9261 216.973 53.4053 216.628 53.0312C216.282 52.6525 215.806 52.4631 215.2 52.4631C214.793 52.4631 214.433 52.5507 214.121 52.7259C213.813 52.901 213.571 53.1567 213.396 53.4929C213.226 53.8243 213.138 54.2244 213.133 54.6932ZM229.545 56.3551V50.0909H232.57V61H229.666V59.0185H229.552C229.306 59.6577 228.896 60.1714 228.323 60.5597C227.755 60.9479 227.061 61.142 226.242 61.142C225.513 61.142 224.872 60.9763 224.318 60.6449C223.764 60.3134 223.33 59.8423 223.018 59.2315C222.71 58.6207 222.554 57.8892 222.549 57.0369V50.0909H225.575V56.4972C225.579 57.1411 225.752 57.6501 226.093 58.0241C226.434 58.3982 226.891 58.5852 227.464 58.5852C227.829 58.5852 228.169 58.5024 228.487 58.3366C228.804 58.1662 229.06 57.9152 229.254 57.5838C229.453 57.2524 229.55 56.8428 229.545 56.3551ZM238.606 46.4545L238.329 56.6392H235.729L235.445 46.4545H238.606ZM237.029 61.1847C236.56 61.1847 236.158 61.0189 235.822 60.6875C235.485 60.3513 235.32 59.9489 235.324 59.4801C235.32 59.0161 235.485 58.6184 235.822 58.2869C236.158 57.9555 236.56 57.7898 237.029 57.7898C237.479 57.7898 237.874 57.9555 238.215 58.2869C238.556 58.6184 238.729 59.0161 238.733 59.4801C238.729 59.7926 238.646 60.0791 238.485 60.3395C238.329 60.5952 238.123 60.8011 237.867 60.9574C237.611 61.1089 237.332 61.1847 237.029 61.1847ZM58.2505 74.6378C58.1937 74.0649 57.9499 73.6198 57.519 73.3026C57.0881 72.9853 56.5034 72.8267 55.7647 72.8267C55.2628 72.8267 54.8391 72.8977 54.4934 73.0398C54.1478 73.1771 53.8826 73.3688 53.698 73.6151C53.5181 73.8613 53.4281 74.1406 53.4281 74.4531C53.4186 74.7135 53.4731 74.9408 53.5914 75.1349C53.7145 75.3291 53.8826 75.4972 54.0957 75.6392C54.3088 75.7765 54.555 75.8973 54.8343 76.0014C55.1137 76.1009 55.412 76.1861 55.7292 76.2571L57.036 76.5696C57.6705 76.7116 58.2529 76.901 58.7832 77.1378C59.3135 77.3745 59.7728 77.6657 60.161 78.0114C60.5493 78.357 60.85 78.7642 61.063 79.233C61.2808 79.7017 61.3921 80.2391 61.3968 80.8452C61.3921 81.7353 61.1648 82.5071 60.715 83.1605C60.2699 83.8092 59.626 84.3134 58.7832 84.6733C57.9451 85.0284 56.9342 85.206 55.7505 85.206C54.5763 85.206 53.5536 85.026 52.6824 84.6662C51.8159 84.3063 51.1388 83.7737 50.6511 83.0682C50.1681 82.358 49.9148 81.4796 49.8912 80.4332H52.867C52.9002 80.9209 53.0398 81.3281 53.286 81.6548C53.537 81.9768 53.8708 82.2206 54.2875 82.3864C54.7089 82.5473 55.1847 82.6278 55.715 82.6278C56.2359 82.6278 56.688 82.5521 57.0716 82.4006C57.4598 82.2491 57.7605 82.0384 57.9735 81.7685C58.1866 81.4986 58.2931 81.1884 58.2931 80.8381C58.2931 80.5114 58.1961 80.2367 58.002 80.0142C57.8126 79.7917 57.5332 79.6023 57.1639 79.446C56.7993 79.2898 56.3519 79.1477 55.8216 79.0199L54.2377 78.6222C53.0114 78.3239 52.0431 77.8575 51.3329 77.223C50.6227 76.5885 50.2699 75.7339 50.2747 74.6591C50.2699 73.7784 50.5043 73.009 50.9778 72.3509C51.456 71.6927 52.1118 71.179 52.9451 70.8097C53.7785 70.4403 54.7254 70.2557 55.786 70.2557C56.8656 70.2557 57.8078 70.4403 58.6127 70.8097C59.4224 71.179 60.0521 71.6927 60.502 72.3509C60.9518 73.009 61.1838 73.7713 61.198 74.6378H58.2505ZM69.2111 74.0909V76.3636H62.6415V74.0909H69.2111ZM64.133 71.4773H67.1586V81.6477C67.1586 81.9271 67.2012 82.1449 67.2864 82.3011C67.3716 82.4527 67.49 82.5592 67.6415 82.6207C67.7978 82.6823 67.9777 82.7131 68.1813 82.7131C68.3233 82.7131 68.4654 82.7012 68.6074 82.6776C68.7495 82.6491 68.8584 82.6278 68.9341 82.6136L69.41 84.8651C69.2585 84.9124 69.0454 84.9669 68.7708 85.0284C68.4962 85.0947 68.1623 85.1349 67.7694 85.1491C67.0402 85.1776 66.401 85.0805 65.8517 84.858C65.3072 84.6354 64.8835 84.2898 64.5804 83.821C64.2774 83.3523 64.1283 82.7604 64.133 82.0455V71.4773ZM74.2928 85.206C73.5968 85.206 72.9765 85.0852 72.432 84.8438C71.8875 84.5975 71.4566 84.2353 71.1394 83.7571C70.8269 83.2741 70.6706 82.6728 70.6706 81.9531C70.6706 81.3471 70.7819 80.8381 71.0044 80.4261C71.227 80.0142 71.53 79.6828 71.9135 79.4318C72.2971 79.1809 72.7327 78.9915 73.2203 78.8636C73.7128 78.7358 74.2289 78.6458 74.7686 78.5938C75.4031 78.5275 75.9145 78.4659 76.3027 78.4091C76.691 78.3475 76.9727 78.2576 77.1479 78.1392C77.3231 78.0208 77.4107 77.8456 77.4107 77.6136V77.571C77.4107 77.1212 77.2686 76.7732 76.9846 76.527C76.7052 76.2808 76.3075 76.1577 75.7914 76.1577C75.2469 76.1577 74.8136 76.2784 74.4917 76.5199C74.1697 76.7566 73.9566 77.0549 73.8525 77.4148L71.0542 77.1875C71.1962 76.5246 71.4756 75.9517 71.8922 75.4688C72.3089 74.9811 72.8463 74.607 73.5044 74.3466C74.1673 74.0814 74.9344 73.9489 75.8056 73.9489C76.4116 73.9489 76.9917 74.0199 77.5456 74.1619C78.1043 74.304 78.5991 74.5241 79.03 74.8224C79.4656 75.1207 79.8089 75.5043 80.0598 75.973C80.3108 76.437 80.4363 76.9934 80.4363 77.642V85H77.5669V83.4872H77.4817C77.3065 83.8281 77.0721 84.1288 76.7786 84.3892C76.485 84.6449 76.1323 84.8461 75.7203 84.9929C75.3084 85.1349 74.8326 85.206 74.2928 85.206ZM75.1593 83.1179C75.6043 83.1179 75.9973 83.0303 76.3382 82.8551C76.6792 82.6752 76.9467 82.4337 77.1408 82.1307C77.3349 81.8277 77.432 81.4844 77.432 81.1009V79.9432C77.3373 80.0047 77.2071 80.0616 77.0414 80.1136C76.8804 80.161 76.6981 80.206 76.4945 80.2486C76.2909 80.2865 76.0873 80.322 75.8837 80.3551C75.6801 80.3835 75.4954 80.4096 75.3297 80.4332C74.9746 80.4853 74.6645 80.5682 74.3993 80.6818C74.1342 80.7955 73.9282 80.9493 73.7814 81.1435C73.6346 81.3329 73.5613 81.5696 73.5613 81.8537C73.5613 82.2656 73.7104 82.5805 74.0087 82.7983C74.3117 83.0114 74.6953 83.1179 75.1593 83.1179ZM82.7836 85V74.0909H85.7168V75.9943H85.8304C86.0293 75.3172 86.3631 74.8059 86.8319 74.4602C87.3006 74.1098 87.8404 73.9347 88.4512 73.9347C88.6027 73.9347 88.766 73.9441 88.9412 73.9631C89.1164 73.982 89.2703 74.008 89.4029 74.0412V76.7259C89.2608 76.6832 89.0643 76.6454 88.8134 76.6122C88.5624 76.5791 88.3328 76.5625 88.1245 76.5625C87.6794 76.5625 87.2817 76.6596 86.9313 76.8537C86.5856 77.0431 86.311 77.3082 86.1074 77.6491C85.9086 77.9901 85.8091 78.383 85.8091 78.8281V85H82.7836ZM97.3166 74.0909V76.3636H90.747V74.0909H97.3166ZM92.2385 71.4773H95.264V81.6477C95.264 81.9271 95.3066 82.1449 95.3919 82.3011C95.4771 82.4527 95.5955 82.5592 95.747 82.6207C95.9032 82.6823 96.0832 82.7131 96.2868 82.7131C96.4288 82.7131 96.5708 82.7012 96.7129 82.6776C96.8549 82.6491 96.9638 82.6278 97.0396 82.6136L97.5154 84.8651C97.3639 84.9124 97.1509 84.9669 96.8762 85.0284C96.6016 85.0947 96.2678 85.1349 95.8748 85.1491C95.1457 85.1776 94.5065 85.0805 93.9572 84.858C93.4127 84.6354 92.9889 84.2898 92.6859 83.821C92.3829 83.3523 92.2337 82.7604 92.2385 82.0455V71.4773ZM103.916 85V74.0909H106.8V76.0156H106.928C107.155 75.3764 107.534 74.8722 108.064 74.5028C108.594 74.1335 109.229 73.9489 109.968 73.9489C110.716 73.9489 111.352 74.1359 111.878 74.5099C112.404 74.8793 112.754 75.3812 112.929 76.0156H113.043C113.265 75.3906 113.668 74.8911 114.25 74.517C114.837 74.1383 115.531 73.9489 116.331 73.9489C117.349 73.9489 118.175 74.2732 118.81 74.9219C119.449 75.5658 119.769 76.4796 119.769 77.6634V85H116.75V78.2599C116.75 77.6539 116.589 77.1993 116.267 76.8963C115.945 76.5933 115.543 76.4418 115.06 76.4418C114.511 76.4418 114.082 76.617 113.774 76.9673C113.467 77.313 113.313 77.7699 113.313 78.3381V85H110.379V78.196C110.379 77.661 110.226 77.2348 109.918 76.9176C109.615 76.6004 109.215 76.4418 108.718 76.4418C108.381 76.4418 108.078 76.527 107.808 76.6974C107.543 76.8632 107.333 77.0975 107.176 77.4006C107.02 77.6989 106.942 78.0492 106.942 78.4517V85H103.916ZM127.13 85.2131C126.008 85.2131 125.042 84.9858 124.232 84.5312C123.427 84.072 122.807 83.4233 122.372 82.5852C121.936 81.7424 121.718 80.7457 121.718 79.5952C121.718 78.473 121.936 77.4882 122.372 76.6406C122.807 75.7931 123.42 75.1326 124.211 74.6591C125.007 74.1856 125.939 73.9489 127.009 73.9489C127.729 73.9489 128.399 74.0649 129.019 74.2969C129.644 74.5241 130.189 74.8674 130.653 75.3267C131.122 75.786 131.486 76.3636 131.747 77.0597C132.007 77.7509 132.137 78.5606 132.137 79.4886V80.3196H122.926V78.4446H129.289C129.289 78.009 129.195 77.6231 129.005 77.2869C128.816 76.9508 128.553 76.688 128.217 76.4986C127.885 76.3045 127.499 76.2074 127.059 76.2074C126.6 76.2074 126.193 76.3139 125.838 76.527C125.487 76.7353 125.213 77.017 125.014 77.3722C124.815 77.7225 124.713 78.1132 124.708 78.544V80.3267C124.708 80.8665 124.808 81.3329 125.007 81.7259C125.21 82.1188 125.497 82.4219 125.866 82.6349C126.235 82.848 126.673 82.9545 127.18 82.9545C127.516 82.9545 127.824 82.9072 128.103 82.8125C128.383 82.7178 128.622 82.5758 128.82 82.3864C129.019 82.197 129.171 81.965 129.275 81.6903L132.073 81.875C131.931 82.5473 131.64 83.1345 131.2 83.6364C130.764 84.1335 130.201 84.5218 129.509 84.8011C128.823 85.0758 128.03 85.2131 127.13 85.2131ZM138.132 85.1776C137.303 85.1776 136.552 84.9645 135.88 84.5384C135.213 84.1075 134.682 83.4754 134.289 82.642C133.901 81.804 133.707 80.7765 133.707 79.5597C133.707 78.3097 133.908 77.2704 134.311 76.4418C134.713 75.6084 135.248 74.9858 135.916 74.5739C136.588 74.1572 137.324 73.9489 138.124 73.9489C138.735 73.9489 139.244 74.053 139.651 74.2614C140.063 74.465 140.395 74.7206 140.646 75.0284C140.901 75.3314 141.096 75.6297 141.228 75.9233H141.32V70.4545H144.339V85H141.356V83.2528H141.228C141.086 83.5559 140.885 83.8565 140.624 84.1548C140.369 84.4484 140.035 84.6922 139.623 84.8864C139.216 85.0805 138.719 85.1776 138.132 85.1776ZM139.09 82.7699C139.578 82.7699 139.99 82.6373 140.326 82.3722C140.667 82.1023 140.927 81.7259 141.107 81.2429C141.292 80.7599 141.384 80.1941 141.384 79.5455C141.384 78.8968 141.294 78.3333 141.115 77.8551C140.935 77.3769 140.674 77.0076 140.333 76.7472C139.992 76.4867 139.578 76.3565 139.09 76.3565C138.593 76.3565 138.174 76.4915 137.833 76.7614C137.492 77.0312 137.234 77.4053 137.059 77.8835C136.884 78.3617 136.796 78.9157 136.796 79.5455C136.796 80.1799 136.884 80.741 137.059 81.2287C137.239 81.7116 137.497 82.0904 137.833 82.3651C138.174 82.6349 138.593 82.7699 139.09 82.7699ZM154.566 85.206C153.87 85.206 153.25 85.0852 152.705 84.8438C152.161 84.5975 151.73 84.2353 151.413 83.7571C151.1 83.2741 150.944 82.6728 150.944 81.9531C150.944 81.3471 151.055 80.8381 151.278 80.4261C151.5 80.0142 151.803 79.6828 152.187 79.4318C152.57 79.1809 153.006 78.9915 153.494 78.8636C153.986 78.7358 154.502 78.6458 155.042 78.5938C155.677 78.5275 156.188 78.4659 156.576 78.4091C156.964 78.3475 157.246 78.2576 157.421 78.1392C157.597 78.0208 157.684 77.8456 157.684 77.6136V77.571C157.684 77.1212 157.542 76.7732 157.258 76.527C156.979 76.2808 156.581 76.1577 156.065 76.1577C155.52 76.1577 155.087 76.2784 154.765 76.5199C154.443 76.7566 154.23 77.0549 154.126 77.4148L151.328 77.1875C151.47 76.5246 151.749 75.9517 152.166 75.4688C152.582 74.9811 153.12 74.607 153.778 74.3466C154.441 74.0814 155.208 73.9489 156.079 73.9489C156.685 73.9489 157.265 74.0199 157.819 74.1619C158.378 74.304 158.873 74.5241 159.303 74.8224C159.739 75.1207 160.082 75.5043 160.333 75.973C160.584 76.437 160.71 76.9934 160.71 77.642V85H157.84V83.4872H157.755C157.58 83.8281 157.346 84.1288 157.052 84.3892C156.758 84.6449 156.406 84.8461 155.994 84.9929C155.582 85.1349 155.106 85.206 154.566 85.206ZM155.433 83.1179C155.878 83.1179 156.271 83.0303 156.612 82.8551C156.953 82.6752 157.22 82.4337 157.414 82.1307C157.608 81.8277 157.705 81.4844 157.705 81.1009V79.9432C157.611 80.0047 157.481 80.0616 157.315 80.1136C157.154 80.161 156.972 80.206 156.768 80.2486C156.564 80.2865 156.361 80.322 156.157 80.3551C155.954 80.3835 155.769 80.4096 155.603 80.4332C155.248 80.4853 154.938 80.5682 154.673 80.6818C154.408 80.7955 154.202 80.9493 154.055 81.1435C153.908 81.3329 153.835 81.5696 153.835 81.8537C153.835 82.2656 153.984 82.5805 154.282 82.7983C154.585 83.0114 154.969 83.1179 155.433 83.1179ZM168.86 74.0909V76.3636H162.29V74.0909H168.86ZM163.781 71.4773H166.807V81.6477C166.807 81.9271 166.85 82.1449 166.935 82.3011C167.02 82.4527 167.138 82.5592 167.29 82.6207C167.446 82.6823 167.626 82.7131 167.83 82.7131C167.972 82.7131 168.114 82.7012 168.256 82.6776C168.398 82.6491 168.507 82.6278 168.583 82.6136L169.058 84.8651C168.907 84.9124 168.694 84.9669 168.419 85.0284C168.145 85.0947 167.811 85.1349 167.418 85.1491C166.689 85.1776 166.049 85.0805 165.5 84.858C164.956 84.6354 164.532 84.2898 164.229 83.821C163.926 83.3523 163.777 82.7604 163.781 82.0455V71.4773ZM181.262 74.0909V76.3636H174.692V74.0909H181.262ZM176.184 71.4773H179.209V81.6477C179.209 81.9271 179.252 82.1449 179.337 82.3011C179.422 82.4527 179.541 82.5592 179.692 82.6207C179.849 82.6823 180.028 82.7131 180.232 82.7131C180.374 82.7131 180.516 82.7012 180.658 82.6776C180.8 82.6491 180.909 82.6278 180.985 82.6136L181.461 84.8651C181.309 84.9124 181.096 84.9669 180.822 85.0284C180.547 85.0947 180.213 85.1349 179.82 85.1491C179.091 85.1776 178.452 85.0805 177.903 84.858C177.358 84.6354 176.934 84.2898 176.631 83.821C176.328 83.3523 176.179 82.7604 176.184 82.0455V71.4773ZM186.344 85.206C185.648 85.206 185.027 85.0852 184.483 84.8438C183.938 84.5975 183.507 84.2353 183.19 83.7571C182.878 83.2741 182.721 82.6728 182.721 81.9531C182.721 81.3471 182.833 80.8381 183.055 80.4261C183.278 80.0142 183.581 79.6828 183.964 79.4318C184.348 79.1809 184.783 78.9915 185.271 78.8636C185.764 78.7358 186.28 78.6458 186.819 78.5938C187.454 78.5275 187.965 78.4659 188.354 78.4091C188.742 78.3475 189.023 78.2576 189.199 78.1392C189.374 78.0208 189.461 77.8456 189.461 77.6136V77.571C189.461 77.1212 189.319 76.7732 189.035 76.527C188.756 76.2808 188.358 76.1577 187.842 76.1577C187.298 76.1577 186.864 76.2784 186.542 76.5199C186.22 76.7566 186.007 77.0549 185.903 77.4148L183.105 77.1875C183.247 76.5246 183.526 75.9517 183.943 75.4688C184.36 74.9811 184.897 74.607 185.555 74.3466C186.218 74.0814 186.985 73.9489 187.856 73.9489C188.462 73.9489 189.042 74.0199 189.596 74.1619C190.155 74.304 190.65 74.5241 191.081 74.8224C191.516 75.1207 191.86 75.5043 192.111 75.973C192.362 76.437 192.487 76.9934 192.487 77.642V85H189.618V83.4872H189.532C189.357 83.8281 189.123 84.1288 188.829 84.3892C188.536 84.6449 188.183 84.8461 187.771 84.9929C187.359 85.1349 186.883 85.206 186.344 85.206ZM187.21 83.1179C187.655 83.1179 188.048 83.0303 188.389 82.8551C188.73 82.6752 188.997 82.4337 189.192 82.1307C189.386 81.8277 189.483 81.4844 189.483 81.1009V79.9432C189.388 80.0047 189.258 80.0616 189.092 80.1136C188.931 80.161 188.749 80.206 188.545 80.2486C188.342 80.2865 188.138 80.322 187.934 80.3551C187.731 80.3835 187.546 80.4096 187.381 80.4332C187.025 80.4853 186.715 80.5682 186.45 80.6818C186.185 80.7955 185.979 80.9493 185.832 81.1435C185.685 81.3329 185.612 81.5696 185.612 81.8537C185.612 82.2656 185.761 82.5805 186.059 82.7983C186.363 83.0114 186.746 83.1179 187.21 83.1179ZM199.749 89.3182C198.769 89.3182 197.929 89.1832 197.228 88.9134C196.532 88.6482 195.978 88.286 195.566 87.8267C195.154 87.3674 194.886 86.8513 194.763 86.2784L197.562 85.902C197.647 86.1198 197.782 86.3234 197.966 86.5128C198.151 86.7022 198.395 86.8537 198.698 86.9673C199.006 87.0857 199.38 87.1449 199.82 87.1449C200.478 87.1449 201.02 86.9839 201.447 86.6619C201.877 86.3447 202.093 85.812 202.093 85.0639V83.0682H201.965C201.832 83.3712 201.634 83.6577 201.368 83.9276C201.103 84.1974 200.762 84.4176 200.346 84.5881C199.929 84.7585 199.432 84.8438 198.854 84.8438C198.035 84.8438 197.289 84.6544 196.617 84.2756C195.949 83.892 195.417 83.3073 195.019 82.5213C194.626 81.7306 194.43 80.7315 194.43 79.5241C194.43 78.2884 194.631 77.2562 195.033 76.4276C195.436 75.599 195.971 74.9787 196.638 74.5668C197.311 74.1548 198.047 73.9489 198.847 73.9489C199.458 73.9489 199.969 74.053 200.381 74.2614C200.793 74.465 201.125 74.7206 201.376 75.0284C201.631 75.3314 201.828 75.6297 201.965 75.9233H202.079V74.0909H205.083V85.1065C205.083 86.0346 204.856 86.8111 204.401 87.4361C203.947 88.0611 203.317 88.5298 202.512 88.8423C201.712 89.1596 200.791 89.3182 199.749 89.3182ZM199.813 82.571C200.301 82.571 200.713 82.4503 201.049 82.2088C201.39 81.9626 201.65 81.6122 201.83 81.1577C202.015 80.6984 202.107 80.1491 202.107 79.5099C202.107 78.8707 202.017 78.3168 201.837 77.848C201.657 77.3745 201.397 77.0076 201.056 76.7472C200.715 76.4867 200.301 76.3565 199.813 76.3565C199.316 76.3565 198.897 76.4915 198.556 76.7614C198.215 77.0265 197.957 77.3958 197.782 77.8693C197.607 78.3428 197.519 78.8897 197.519 79.5099C197.519 80.1397 197.607 80.6842 197.782 81.1435C197.962 81.598 198.22 81.9508 198.556 82.2017C198.897 82.4479 199.316 82.571 199.813 82.571ZM212.462 85.2131C211.34 85.2131 210.374 84.9858 209.564 84.5312C208.76 84.072 208.139 83.4233 207.704 82.5852C207.268 81.7424 207.05 80.7457 207.05 79.5952C207.05 78.473 207.268 77.4882 207.704 76.6406C208.139 75.7931 208.752 75.1326 209.543 74.6591C210.339 74.1856 211.271 73.9489 212.341 73.9489C213.061 73.9489 213.731 74.0649 214.351 74.2969C214.976 74.5241 215.521 74.8674 215.985 75.3267C216.454 75.786 216.818 76.3636 217.079 77.0597C217.339 77.7509 217.469 78.5606 217.469 79.4886V80.3196H208.258V78.4446H214.621C214.621 78.009 214.527 77.6231 214.337 77.2869C214.148 76.9508 213.885 76.688 213.549 76.4986C213.217 76.3045 212.831 76.2074 212.391 76.2074C211.932 76.2074 211.525 76.3139 211.17 76.527C210.819 76.7353 210.545 77.017 210.346 77.3722C210.147 77.7225 210.045 78.1132 210.04 78.544V80.3267C210.04 80.8665 210.14 81.3329 210.339 81.7259C210.542 82.1188 210.829 82.4219 211.198 82.6349C211.567 82.848 212.005 82.9545 212.512 82.9545C212.848 82.9545 213.156 82.9072 213.435 82.8125C213.715 82.7178 213.954 82.5758 214.153 82.3864C214.351 82.197 214.503 81.965 214.607 81.6903L217.405 81.875C217.263 82.5473 216.972 83.1345 216.532 83.6364C216.096 84.1335 215.533 84.5218 214.841 84.8011C214.155 85.0758 213.362 85.2131 212.462 85.2131ZM229.044 85.2131C227.922 85.2131 226.956 84.9858 226.146 84.5312C225.342 84.072 224.721 83.4233 224.286 82.5852C223.85 81.7424 223.632 80.7457 223.632 79.5952C223.632 78.473 223.85 77.4882 224.286 76.6406C224.721 75.7931 225.334 75.1326 226.125 74.6591C226.921 74.1856 227.853 73.9489 228.923 73.9489C229.643 73.9489 230.313 74.0649 230.933 74.2969C231.558 74.5241 232.103 74.8674 232.567 75.3267C233.036 75.786 233.4 76.3636 233.661 77.0597C233.921 77.7509 234.051 78.5606 234.051 79.4886V80.3196H224.84V78.4446H231.203C231.203 78.009 231.109 77.6231 230.919 77.2869C230.73 76.9508 230.467 76.688 230.131 76.4986C229.799 76.3045 229.414 76.2074 228.973 76.2074C228.514 76.2074 228.107 76.3139 227.752 76.527C227.401 76.7353 227.127 77.017 226.928 77.3722C226.729 77.7225 226.627 78.1132 226.622 78.544V80.3267C226.622 80.8665 226.722 81.3329 226.921 81.7259C227.124 82.1188 227.411 82.4219 227.78 82.6349C228.149 82.848 228.587 82.9545 229.094 82.9545C229.43 82.9545 229.738 82.9072 230.017 82.8125C230.297 82.7178 230.536 82.5758 230.735 82.3864C230.933 82.197 231.085 81.965 231.189 81.6903L233.987 81.875C233.845 82.5473 233.554 83.1345 233.114 83.6364C232.678 84.1335 232.115 84.5218 231.423 84.8011C230.737 85.0758 229.944 85.2131 229.044 85.2131ZM241.828 74.0909V76.3636H235.259V74.0909H241.828ZM236.75 71.4773H239.776V81.6477C239.776 81.9271 239.818 82.1449 239.904 82.3011C239.989 82.4527 240.107 82.5592 240.259 82.6207C240.415 82.6823 240.595 82.7131 240.798 82.7131C240.941 82.7131 241.083 82.7012 241.225 82.6776C241.367 82.6491 241.476 82.6278 241.551 82.6136L242.027 84.8651C241.876 84.9124 241.663 84.9669 241.388 85.0284C241.113 85.0947 240.78 85.1349 240.387 85.1491C239.657 85.1776 239.018 85.0805 238.469 84.858C237.924 84.6354 237.501 84.2898 237.198 83.821C236.895 83.3523 236.745 82.7604 236.75 82.0455V71.4773ZM248.485 85V70.4545H251.51V75.9233H251.603C251.735 75.6297 251.927 75.3314 252.178 75.0284C252.434 74.7206 252.765 74.465 253.172 74.2614C253.584 74.053 254.096 73.9489 254.706 73.9489C255.502 73.9489 256.236 74.1572 256.908 74.5739C257.581 74.9858 258.118 75.6084 258.52 76.4418C258.923 77.2704 259.124 78.3097 259.124 79.5597C259.124 80.7765 258.928 81.804 258.535 82.642C258.146 83.4754 257.616 84.1075 256.944 84.5384C256.276 84.9645 255.528 85.1776 254.699 85.1776C254.112 85.1776 253.613 85.0805 253.201 84.8864C252.794 84.6922 252.46 84.4484 252.199 84.1548C251.939 83.8565 251.74 83.5559 251.603 83.2528H251.468V85H248.485ZM251.447 79.5455C251.447 80.1941 251.537 80.7599 251.716 81.2429C251.896 81.7259 252.157 82.1023 252.498 82.3722C252.839 82.6373 253.253 82.7699 253.741 82.7699C254.233 82.7699 254.65 82.6349 254.991 82.3651C255.331 82.0904 255.59 81.7116 255.765 81.2287C255.945 80.741 256.035 80.1799 256.035 79.5455C256.035 78.9157 255.947 78.3617 255.772 77.8835C255.597 77.4053 255.339 77.0312 254.998 76.7614C254.657 76.4915 254.238 76.3565 253.741 76.3565C253.248 76.3565 252.831 76.4867 252.491 76.7472C252.154 77.0076 251.896 77.3769 251.716 77.8551C251.537 78.3333 251.447 78.8968 251.447 79.5455ZM261.143 85V74.0909H264.169V85H261.143ZM262.663 72.6847C262.213 72.6847 261.827 72.5355 261.505 72.2372C261.188 71.9342 261.029 71.572 261.029 71.1506C261.029 70.7339 261.188 70.3764 261.505 70.0781C261.827 69.7751 262.213 69.6236 262.663 69.6236C263.113 69.6236 263.496 69.7751 263.813 70.0781C264.135 70.3764 264.296 70.7339 264.296 71.1506C264.296 71.572 264.135 71.9342 263.813 72.2372C263.496 72.5355 263.113 72.6847 262.663 72.6847ZM269.618 70.4545V85H266.592V70.4545H269.618ZM275.067 70.4545V85H272.041V70.4545H275.067ZM282.462 85.2131C281.34 85.2131 280.374 84.9858 279.564 84.5312C278.76 84.072 278.139 83.4233 277.704 82.5852C277.268 81.7424 277.05 80.7457 277.05 79.5952C277.05 78.473 277.268 77.4882 277.704 76.6406C278.139 75.7931 278.752 75.1326 279.543 74.6591C280.339 74.1856 281.271 73.9489 282.341 73.9489C283.061 73.9489 283.731 74.0649 284.351 74.2969C284.976 74.5241 285.521 74.8674 285.985 75.3267C286.454 75.786 286.818 76.3636 287.079 77.0597C287.339 77.7509 287.469 78.5606 287.469 79.4886V80.3196H278.258V78.4446H284.621C284.621 78.009 284.527 77.6231 284.337 77.2869C284.148 76.9508 283.885 76.688 283.549 76.4986C283.217 76.3045 282.831 76.2074 282.391 76.2074C281.932 76.2074 281.525 76.3139 281.17 76.527C280.819 76.7353 280.545 77.017 280.346 77.3722C280.147 77.7225 280.045 78.1132 280.04 78.544V80.3267C280.04 80.8665 280.14 81.3329 280.339 81.7259C280.542 82.1188 280.829 82.4219 281.198 82.6349C281.567 82.848 282.005 82.9545 282.512 82.9545C282.848 82.9545 283.156 82.9072 283.435 82.8125C283.715 82.7178 283.954 82.5758 284.153 82.3864C284.351 82.197 284.503 81.965 284.607 81.6903L287.405 81.875C287.263 82.5473 286.972 83.1345 286.532 83.6364C286.096 84.1335 285.533 84.5218 284.841 84.8011C284.155 85.0758 283.362 85.2131 282.462 85.2131ZM293.464 85.1776C292.635 85.1776 291.885 84.9645 291.212 84.5384C290.545 84.1075 290.014 83.4754 289.621 82.642C289.233 81.804 289.039 80.7765 289.039 79.5597C289.039 78.3097 289.24 77.2704 289.643 76.4418C290.045 75.6084 290.58 74.9858 291.248 74.5739C291.92 74.1572 292.656 73.9489 293.456 73.9489C294.067 73.9489 294.576 74.053 294.983 74.2614C295.395 74.465 295.727 74.7206 295.978 75.0284C296.233 75.3314 296.428 75.6297 296.56 75.9233H296.653V70.4545H299.671V85H296.688V83.2528H296.56C296.418 83.5559 296.217 83.8565 295.956 84.1548C295.701 84.4484 295.367 84.6922 294.955 84.8864C294.548 85.0805 294.051 85.1776 293.464 85.1776ZM294.422 82.7699C294.91 82.7699 295.322 82.6373 295.658 82.3722C295.999 82.1023 296.26 81.7259 296.439 81.2429C296.624 80.7599 296.716 80.1941 296.716 79.5455C296.716 78.8968 296.626 78.3333 296.447 77.8551C296.267 77.3769 296.006 77.0076 295.665 76.7472C295.324 76.4867 294.91 76.3565 294.422 76.3565C293.925 76.3565 293.506 76.4915 293.165 76.7614C292.824 77.0312 292.566 77.4053 292.391 77.8835C292.216 78.3617 292.128 78.9157 292.128 79.5455C292.128 80.1799 292.216 80.741 292.391 81.2287C292.571 81.7116 292.829 82.0904 293.165 82.3651C293.506 82.6349 293.925 82.7699 294.422 82.7699ZM307.13 85.2131C306.008 85.2131 305.042 84.9858 304.232 84.5312C303.427 84.072 302.807 83.4233 302.372 82.5852C301.936 81.7424 301.718 80.7457 301.718 79.5952C301.718 78.473 301.936 77.4882 302.372 76.6406C302.807 75.7931 303.42 75.1326 304.211 74.6591C305.007 74.1856 305.939 73.9489 307.009 73.9489C307.729 73.9489 308.399 74.0649 309.019 74.2969C309.644 74.5241 310.189 74.8674 310.653 75.3267C311.122 75.786 311.486 76.3636 311.747 77.0597C312.007 77.7509 312.137 78.5606 312.137 79.4886V80.3196H302.926V78.4446H309.289C309.289 78.009 309.195 77.6231 309.005 77.2869C308.816 76.9508 308.553 76.688 308.217 76.4986C307.885 76.3045 307.499 76.2074 307.059 76.2074C306.6 76.2074 306.193 76.3139 305.838 76.527C305.487 76.7353 305.213 77.017 305.014 77.3722C304.815 77.7225 304.713 78.1132 304.708 78.544V80.3267C304.708 80.8665 304.808 81.3329 305.007 81.7259C305.21 82.1188 305.497 82.4219 305.866 82.6349C306.235 82.848 306.673 82.9545 307.18 82.9545C307.516 82.9545 307.824 82.9072 308.103 82.8125C308.383 82.7178 308.622 82.5758 308.82 82.3864C309.019 82.197 309.171 81.965 309.275 81.6903L312.073 81.875C311.931 82.5473 311.64 83.1345 311.2 83.6364C310.764 84.1335 310.201 84.5218 309.509 84.8011C308.823 85.0758 308.03 85.2131 307.13 85.2131Z" fill="#949494"/>
<g clip-path="url(#clip0_363_870)">
<path d="M213.371 192.5C208.195 192.5 203.326 189.74 200.692 185.325L181 152.637L161.339 185.325C158.674 189.771 153.805 192.531 148.629 192.531C147.251 192.531 145.873 192.347 144.556 191.948L102.6 179.928V234.51C102.6 239.017 105.663 242.942 110.011 244.016L176.222 260.605C179.346 261.371 182.623 261.371 185.716 260.605L251.989 244.016C256.337 242.912 259.4 238.987 259.4 234.51V179.928L217.444 191.917C216.127 192.316 214.749 192.5 213.371 192.5ZM278.479 158.095L262.707 126.572C261.758 124.671 259.706 123.567 257.593 123.843L181 133.625L209.083 180.265C210.247 182.197 212.574 183.117 214.749 182.503L275.356 165.178C278.387 164.289 279.857 160.916 278.479 158.095ZM99.2925 126.572L83.5206 158.095C82.1119 160.916 83.6125 164.289 86.6138 165.148L147.221 182.473C149.395 183.086 151.723 182.166 152.886 180.234L181 133.625L104.376 123.843C102.263 123.598 100.242 124.671 99.2925 126.572Z" fill="#DBDBDB"/>
</g>
<defs>
<clipPath id="clip0_363_870">
<rect width="196" height="157" fill="white" transform="translate(83 114)"/>
</clipPath>
</defs>
</svg>
