<svg width="35" height="36" viewBox="0 0 35 36" fill="none" xmlns="http://www.w3.org/2000/svg">
<path d="M6.25 0V1.5625H0V35.9375H34.375V1.5625H28.125V0H25V1.5625H9.375V0H6.25ZM3.125 4.6875H6.25V6.25H9.375V4.6875H25V6.25H28.125V4.6875H31.25V7.8125H3.125V4.6875ZM3.125 10.9375H31.25V32.8125H3.125V10.9375ZM12.5 14.0625V17.1875H15.625V14.0625H12.5ZM18.75 14.0625V17.1875H21.875V14.0625H18.75ZM25 14.0625V17.1875H28.125V14.0625H25ZM6.25 20.3125V23.4375H9.375V20.3125H6.25ZM12.5 20.3125V23.4375H15.625V20.3125H12.5ZM18.75 20.3125V23.4375H21.875V20.3125H18.75ZM25 20.3125V23.4375H28.125V20.3125H25ZM6.25 26.5625V29.6875H9.375V26.5625H6.25ZM12.5 26.5625V29.6875H15.625V26.5625H12.5ZM18.75 26.5625V29.6875H21.875V26.5625H18.75Z" fill="#757575"/>
</svg>
