<svg width="362" height="301" viewBox="0 0 362 301" fill="none" xmlns="http://www.w3.org/2000/svg">
<rect width="362" height="301" rx="16" fill="#D2D2D2"/>
<path d="M162.922 71.4375L161.699 73.0234L157.062 79.25H129.719V149.562H231.281V79.25H203.938L199.297 73.0234L198.078 71.4375H162.922ZM166.828 79.25H194.172L198.812 85.4766L200.031 87.0625H223.469V141.75H137.531V87.0625H160.969L162.191 85.4766L166.828 79.25ZM149.25 90.9688C147.102 90.9688 145.344 92.7266 145.344 94.875C145.344 97.0234 147.102 98.7812 149.25 98.7812C151.398 98.7812 153.156 97.0234 153.156 94.875C153.156 92.7266 151.398 90.9688 149.25 90.9688ZM180.5 90.9688C167.609 90.9688 157.062 101.516 157.062 114.406C157.062 127.297 167.609 137.844 180.5 137.844C193.391 137.844 203.938 127.297 203.938 114.406C203.938 101.516 193.391 90.9688 180.5 90.9688ZM180.5 98.7812C189.184 98.7812 196.125 105.723 196.125 114.406C196.125 123.09 189.184 130.031 180.5 130.031C171.816 130.031 164.875 123.09 164.875 114.406C164.875 105.723 171.816 98.7812 180.5 98.7812Z" fill="#757575"/>
<path d="M113.337 181.588V178.545H127.672V181.588H122.328V196H118.68V181.588H113.337ZM131.916 196.247C131.081 196.247 130.337 196.102 129.683 195.812C129.03 195.517 128.513 195.082 128.132 194.509C127.757 193.929 127.57 193.207 127.57 192.344C127.57 191.616 127.703 191.006 127.97 190.511C128.237 190.017 128.601 189.619 129.061 189.318C129.521 189.017 130.044 188.79 130.629 188.636C131.22 188.483 131.839 188.375 132.487 188.312C133.249 188.233 133.862 188.159 134.328 188.091C134.794 188.017 135.132 187.909 135.342 187.767C135.553 187.625 135.658 187.415 135.658 187.136V187.085C135.658 186.545 135.487 186.128 135.146 185.832C134.811 185.537 134.334 185.389 133.714 185.389C133.061 185.389 132.541 185.534 132.155 185.824C131.768 186.108 131.513 186.466 131.388 186.898L128.03 186.625C128.2 185.83 128.536 185.142 129.036 184.562C129.536 183.977 130.18 183.528 130.97 183.216C131.766 182.898 132.686 182.739 133.732 182.739C134.459 182.739 135.155 182.824 135.82 182.994C136.49 183.165 137.084 183.429 137.601 183.787C138.124 184.145 138.536 184.605 138.837 185.168C139.138 185.724 139.288 186.392 139.288 187.17V196H135.845V194.185H135.743C135.533 194.594 135.251 194.955 134.899 195.267C134.547 195.574 134.124 195.815 133.629 195.991C133.135 196.162 132.564 196.247 131.916 196.247ZM132.956 193.741C133.49 193.741 133.962 193.636 134.371 193.426C134.78 193.21 135.101 192.92 135.334 192.557C135.567 192.193 135.683 191.781 135.683 191.321V189.932C135.57 190.006 135.413 190.074 135.214 190.136C135.021 190.193 134.803 190.247 134.558 190.298C134.314 190.344 134.07 190.386 133.825 190.426C133.581 190.46 133.359 190.491 133.161 190.52C132.734 190.582 132.362 190.682 132.044 190.818C131.726 190.955 131.479 191.139 131.303 191.372C131.126 191.599 131.038 191.884 131.038 192.224C131.038 192.719 131.217 193.097 131.575 193.358C131.939 193.614 132.399 193.741 132.956 193.741ZM148.003 201.182C146.827 201.182 145.818 201.02 144.977 200.696C144.142 200.378 143.477 199.943 142.983 199.392C142.489 198.841 142.168 198.222 142.02 197.534L145.378 197.082C145.48 197.344 145.642 197.588 145.864 197.815C146.085 198.043 146.378 198.224 146.741 198.361C147.111 198.503 147.56 198.574 148.088 198.574C148.878 198.574 149.528 198.381 150.04 197.994C150.557 197.614 150.815 196.974 150.815 196.077V193.682H150.662C150.503 194.045 150.264 194.389 149.946 194.713C149.628 195.037 149.219 195.301 148.719 195.506C148.219 195.71 147.622 195.812 146.929 195.812C145.946 195.812 145.051 195.585 144.244 195.131C143.443 194.67 142.804 193.969 142.327 193.026C141.855 192.077 141.619 190.878 141.619 189.429C141.619 187.946 141.861 186.707 142.344 185.713C142.827 184.719 143.469 183.974 144.27 183.48C145.077 182.986 145.96 182.739 146.92 182.739C147.653 182.739 148.267 182.864 148.761 183.114C149.256 183.358 149.653 183.665 149.955 184.034C150.261 184.398 150.497 184.756 150.662 185.108H150.798V182.909H154.403V196.128C154.403 197.241 154.131 198.173 153.585 198.923C153.04 199.673 152.284 200.236 151.318 200.611C150.358 200.991 149.253 201.182 148.003 201.182ZM148.08 193.085C148.665 193.085 149.159 192.94 149.562 192.651C149.972 192.355 150.284 191.935 150.5 191.389C150.722 190.838 150.832 190.179 150.832 189.412C150.832 188.645 150.724 187.98 150.509 187.418C150.293 186.849 149.98 186.409 149.571 186.097C149.162 185.784 148.665 185.628 148.08 185.628C147.483 185.628 146.98 185.79 146.571 186.114C146.162 186.432 145.852 186.875 145.642 187.443C145.432 188.011 145.327 188.668 145.327 189.412C145.327 190.168 145.432 190.821 145.642 191.372C145.858 191.918 146.168 192.341 146.571 192.642C146.98 192.937 147.483 193.085 148.08 193.085ZM167.671 196.213C166.677 196.213 165.776 195.957 164.969 195.446C164.168 194.929 163.532 194.17 163.06 193.17C162.594 192.165 162.362 190.932 162.362 189.472C162.362 187.972 162.603 186.724 163.086 185.73C163.569 184.73 164.211 183.983 165.012 183.489C165.819 182.989 166.702 182.739 167.663 182.739C168.396 182.739 169.006 182.864 169.495 183.114C169.989 183.358 170.387 183.665 170.688 184.034C170.995 184.398 171.228 184.756 171.387 185.108H171.498V178.545H175.12V196H171.54V193.903H171.387C171.217 194.267 170.975 194.628 170.663 194.986C170.356 195.338 169.955 195.631 169.461 195.864C168.972 196.097 168.376 196.213 167.671 196.213ZM168.822 193.324C169.407 193.324 169.901 193.165 170.305 192.847C170.714 192.523 171.026 192.071 171.242 191.491C171.464 190.912 171.575 190.233 171.575 189.455C171.575 188.676 171.467 188 171.251 187.426C171.035 186.852 170.722 186.409 170.313 186.097C169.904 185.784 169.407 185.628 168.822 185.628C168.225 185.628 167.722 185.79 167.313 186.114C166.904 186.437 166.594 186.886 166.384 187.46C166.174 188.034 166.069 188.699 166.069 189.455C166.069 190.216 166.174 190.889 166.384 191.474C166.6 192.054 166.91 192.509 167.313 192.838C167.722 193.162 168.225 193.324 168.822 193.324ZM181.838 196.247C181.003 196.247 180.259 196.102 179.605 195.812C178.952 195.517 178.435 195.082 178.054 194.509C177.679 193.929 177.491 193.207 177.491 192.344C177.491 191.616 177.625 191.006 177.892 190.511C178.159 190.017 178.523 189.619 178.983 189.318C179.443 189.017 179.966 188.79 180.551 188.636C181.142 188.483 181.761 188.375 182.409 188.312C183.17 188.233 183.784 188.159 184.25 188.091C184.716 188.017 185.054 187.909 185.264 187.767C185.474 187.625 185.58 187.415 185.58 187.136V187.085C185.58 186.545 185.409 186.128 185.068 185.832C184.733 185.537 184.256 185.389 183.636 185.389C182.983 185.389 182.463 185.534 182.077 185.824C181.69 186.108 181.435 186.466 181.31 186.898L177.952 186.625C178.122 185.83 178.457 185.142 178.957 184.562C179.457 183.977 180.102 183.528 180.892 183.216C181.688 182.898 182.608 182.739 183.653 182.739C184.381 182.739 185.077 182.824 185.741 182.994C186.412 183.165 187.006 183.429 187.523 183.787C188.045 184.145 188.457 184.605 188.759 185.168C189.06 185.724 189.21 186.392 189.21 187.17V196H185.767V194.185H185.665C185.455 194.594 185.173 194.955 184.821 195.267C184.469 195.574 184.045 195.815 183.551 195.991C183.057 196.162 182.486 196.247 181.838 196.247ZM182.878 193.741C183.412 193.741 183.884 193.636 184.293 193.426C184.702 193.21 185.023 192.92 185.256 192.557C185.489 192.193 185.605 191.781 185.605 191.321V189.932C185.491 190.006 185.335 190.074 185.136 190.136C184.943 190.193 184.724 190.247 184.48 190.298C184.236 190.344 183.991 190.386 183.747 190.426C183.503 190.46 183.281 190.491 183.082 190.52C182.656 190.582 182.284 190.682 181.966 190.818C181.648 190.955 181.401 191.139 181.224 191.372C181.048 191.599 180.96 191.884 180.96 192.224C180.96 192.719 181.139 193.097 181.497 193.358C181.861 193.614 182.321 193.741 182.878 193.741ZM197.925 201.182C196.749 201.182 195.74 201.02 194.899 200.696C194.064 200.378 193.399 199.943 192.905 199.392C192.411 198.841 192.089 198.222 191.942 197.534L195.3 197.082C195.402 197.344 195.564 197.588 195.786 197.815C196.007 198.043 196.3 198.224 196.663 198.361C197.033 198.503 197.482 198.574 198.01 198.574C198.8 198.574 199.45 198.381 199.962 197.994C200.479 197.614 200.737 196.974 200.737 196.077V193.682H200.584C200.425 194.045 200.186 194.389 199.868 194.713C199.55 195.037 199.141 195.301 198.641 195.506C198.141 195.71 197.544 195.812 196.851 195.812C195.868 195.812 194.973 195.585 194.166 195.131C193.365 194.67 192.726 193.969 192.249 193.026C191.777 192.077 191.541 190.878 191.541 189.429C191.541 187.946 191.783 186.707 192.266 185.713C192.749 184.719 193.391 183.974 194.192 183.48C194.999 182.986 195.882 182.739 196.842 182.739C197.575 182.739 198.189 182.864 198.683 183.114C199.178 183.358 199.575 183.665 199.876 184.034C200.183 184.398 200.419 184.756 200.584 185.108H200.72V182.909H204.325V196.128C204.325 197.241 204.053 198.173 203.507 198.923C202.962 199.673 202.206 200.236 201.24 200.611C200.28 200.991 199.175 201.182 197.925 201.182ZM198.001 193.085C198.587 193.085 199.081 192.94 199.484 192.651C199.893 192.355 200.206 191.935 200.422 191.389C200.643 190.838 200.754 190.179 200.754 189.412C200.754 188.645 200.646 187.98 200.43 187.418C200.214 186.849 199.902 186.409 199.493 186.097C199.084 185.784 198.587 185.628 198.001 185.628C197.405 185.628 196.902 185.79 196.493 186.114C196.084 186.432 195.774 186.875 195.564 187.443C195.354 188.011 195.249 188.668 195.249 189.412C195.249 190.168 195.354 190.821 195.564 191.372C195.78 191.918 196.089 192.341 196.493 192.642C196.902 192.937 197.405 193.085 198.001 193.085ZM213.18 196.256C211.834 196.256 210.675 195.983 209.703 195.438C208.737 194.886 207.993 194.108 207.47 193.102C206.947 192.091 206.686 190.895 206.686 189.514C206.686 188.168 206.947 186.986 207.47 185.969C207.993 184.952 208.729 184.159 209.678 183.591C210.632 183.023 211.751 182.739 213.036 182.739C213.899 182.739 214.703 182.878 215.447 183.156C216.197 183.429 216.851 183.841 217.408 184.392C217.97 184.943 218.408 185.636 218.72 186.472C219.033 187.301 219.189 188.273 219.189 189.386V190.384H208.135V188.134H215.771C215.771 187.611 215.658 187.148 215.43 186.744C215.203 186.341 214.888 186.026 214.484 185.798C214.087 185.565 213.624 185.449 213.095 185.449C212.544 185.449 212.055 185.577 211.629 185.832C211.209 186.082 210.879 186.42 210.641 186.847C210.402 187.267 210.28 187.736 210.274 188.253V190.392C210.274 191.04 210.393 191.599 210.632 192.071C210.876 192.543 211.22 192.906 211.663 193.162C212.107 193.418 212.632 193.545 213.24 193.545C213.643 193.545 214.013 193.489 214.348 193.375C214.683 193.261 214.97 193.091 215.209 192.864C215.447 192.636 215.629 192.358 215.754 192.028L219.112 192.25C218.942 193.057 218.592 193.761 218.064 194.364C217.541 194.96 216.865 195.426 216.036 195.761C215.212 196.091 214.26 196.256 213.18 196.256ZM225.189 188.432V196H221.558V182.909H225.018V185.219H225.172C225.462 184.457 225.947 183.855 226.629 183.412C227.311 182.963 228.138 182.739 229.109 182.739C230.018 182.739 230.811 182.938 231.487 183.335C232.163 183.733 232.689 184.301 233.064 185.04C233.439 185.773 233.626 186.648 233.626 187.665V196H229.996V188.312C230.001 187.511 229.797 186.886 229.382 186.438C228.967 185.983 228.396 185.756 227.669 185.756C227.18 185.756 226.749 185.861 226.374 186.071C226.004 186.281 225.714 186.588 225.504 186.991C225.3 187.389 225.195 187.869 225.189 188.432ZM247.38 186.642L244.056 186.847C243.999 186.562 243.877 186.307 243.69 186.08C243.502 185.847 243.255 185.662 242.948 185.526C242.647 185.384 242.286 185.312 241.866 185.312C241.303 185.312 240.829 185.432 240.442 185.67C240.056 185.903 239.863 186.216 239.863 186.608C239.863 186.92 239.988 187.185 240.238 187.401C240.488 187.616 240.917 187.79 241.525 187.92L243.894 188.398C245.167 188.659 246.116 189.08 246.741 189.659C247.366 190.239 247.678 191 247.678 191.943C247.678 192.801 247.425 193.554 246.92 194.202C246.42 194.849 245.732 195.355 244.857 195.719C243.988 196.077 242.985 196.256 241.849 196.256C240.116 196.256 238.735 195.895 237.707 195.173C236.684 194.446 236.085 193.457 235.908 192.207L239.479 192.02C239.587 192.548 239.849 192.952 240.263 193.23C240.678 193.503 241.21 193.639 241.857 193.639C242.494 193.639 243.005 193.517 243.391 193.273C243.783 193.023 243.982 192.702 243.988 192.31C243.982 191.98 243.843 191.71 243.57 191.5C243.298 191.284 242.877 191.119 242.309 191.006L240.042 190.554C238.763 190.298 237.812 189.855 237.187 189.224C236.567 188.594 236.258 187.79 236.258 186.812C236.258 185.972 236.485 185.247 236.94 184.639C237.4 184.031 238.045 183.562 238.874 183.233C239.71 182.903 240.687 182.739 241.806 182.739C243.46 182.739 244.761 183.088 245.71 183.787C246.664 184.486 247.221 185.437 247.38 186.642ZM107.743 211.909V214.636H99.663V211.909H107.743ZM101.512 225V210.963C101.512 210.014 101.697 209.227 102.066 208.602C102.441 207.977 102.953 207.509 103.6 207.196C104.248 206.884 104.984 206.727 105.808 206.727C106.365 206.727 106.873 206.77 107.333 206.855C107.799 206.94 108.146 207.017 108.373 207.085L107.725 209.812C107.583 209.767 107.407 209.724 107.197 209.685C106.993 209.645 106.782 209.625 106.566 209.625C106.032 209.625 105.66 209.75 105.45 210C105.24 210.244 105.135 210.588 105.135 211.031V225H101.512ZM111.529 225.835L109.867 224.71L119.267 211.176L120.946 212.301L111.529 225.835ZM115.407 225.273C114.083 225.273 112.938 224.991 111.972 224.429C111.012 223.861 110.27 223.071 109.748 222.06C109.225 221.048 108.963 219.869 108.963 218.523C108.963 217.17 109.225 215.989 109.748 214.977C110.27 213.96 111.012 213.17 111.972 212.608C112.938 212.04 114.083 211.756 115.407 211.756C116.73 211.756 117.873 212.04 118.833 212.608C119.799 213.17 120.543 213.96 121.066 214.977C121.588 215.989 121.85 217.17 121.85 218.523C121.85 219.869 121.588 221.048 121.066 222.06C120.543 223.071 119.799 223.861 118.833 224.429C117.873 224.991 116.73 225.273 115.407 225.273ZM115.424 222.46C116.026 222.46 116.529 222.29 116.932 221.949C117.336 221.602 117.64 221.131 117.844 220.534C118.054 219.937 118.159 219.261 118.159 218.506C118.159 217.739 118.054 217.057 117.844 216.46C117.64 215.864 117.336 215.392 116.932 215.045C116.529 214.699 116.026 214.526 115.424 214.526C114.816 214.526 114.304 214.699 113.89 215.045C113.48 215.392 113.171 215.864 112.961 216.46C112.756 217.057 112.654 217.739 112.654 218.506C112.654 219.261 112.756 219.937 112.961 220.534C113.171 221.131 113.48 221.602 113.89 221.949C114.304 222.29 114.816 222.46 115.424 222.46ZM124.211 225V211.909H127.73V214.193H127.867C128.105 213.381 128.506 212.767 129.069 212.352C129.631 211.932 130.279 211.722 131.012 211.722C131.194 211.722 131.39 211.733 131.6 211.756C131.81 211.778 131.995 211.81 132.154 211.849V215.071C131.983 215.02 131.748 214.974 131.446 214.935C131.145 214.895 130.87 214.875 130.62 214.875C130.086 214.875 129.608 214.991 129.188 215.224C128.773 215.452 128.444 215.77 128.199 216.179C127.961 216.588 127.841 217.06 127.841 217.594V225H124.211ZM144.923 215.642L141.599 215.847C141.542 215.562 141.42 215.307 141.233 215.08C141.045 214.847 140.798 214.662 140.491 214.526C140.19 214.384 139.829 214.312 139.409 214.312C138.846 214.312 138.372 214.432 137.985 214.67C137.599 214.903 137.406 215.216 137.406 215.608C137.406 215.92 137.531 216.185 137.781 216.401C138.031 216.616 138.46 216.79 139.068 216.92L141.437 217.398C142.71 217.659 143.659 218.08 144.284 218.659C144.909 219.239 145.221 220 145.221 220.943C145.221 221.801 144.968 222.554 144.463 223.202C143.963 223.849 143.275 224.355 142.4 224.719C141.531 225.077 140.528 225.256 139.392 225.256C137.659 225.256 136.278 224.895 135.25 224.173C134.227 223.446 133.627 222.457 133.451 221.207L137.022 221.02C137.13 221.548 137.392 221.952 137.806 222.23C138.221 222.503 138.752 222.639 139.4 222.639C140.037 222.639 140.548 222.517 140.934 222.273C141.326 222.023 141.525 221.702 141.531 221.31C141.525 220.98 141.386 220.71 141.113 220.5C140.841 220.284 140.42 220.119 139.852 220.006L137.585 219.554C136.306 219.298 135.355 218.855 134.73 218.224C134.11 217.594 133.801 216.79 133.801 215.812C133.801 214.972 134.028 214.247 134.483 213.639C134.943 213.031 135.588 212.562 136.417 212.233C137.252 211.903 138.23 211.739 139.349 211.739C141.002 211.739 142.304 212.088 143.252 212.787C144.207 213.486 144.764 214.437 144.923 215.642ZM154.471 211.909V214.636H146.587V211.909H154.471ZM148.377 208.773H152.007V220.977C152.007 221.312 152.059 221.574 152.161 221.761C152.263 221.943 152.405 222.071 152.587 222.145C152.775 222.219 152.99 222.256 153.235 222.256C153.405 222.256 153.576 222.241 153.746 222.213C153.917 222.179 154.047 222.153 154.138 222.136L154.709 224.838C154.527 224.895 154.272 224.96 153.942 225.034C153.613 225.114 153.212 225.162 152.74 225.179C151.865 225.213 151.098 225.097 150.439 224.83C149.786 224.562 149.277 224.148 148.914 223.585C148.55 223.023 148.371 222.312 148.377 221.455V208.773ZM162.661 225.256C161.314 225.256 160.155 224.983 159.184 224.438C158.218 223.886 157.473 223.108 156.951 222.102C156.428 221.091 156.167 219.895 156.167 218.514C156.167 217.168 156.428 215.986 156.951 214.969C157.473 213.952 158.209 213.159 159.158 212.591C160.113 212.023 161.232 211.739 162.516 211.739C163.38 211.739 164.184 211.878 164.928 212.156C165.678 212.429 166.331 212.841 166.888 213.392C167.451 213.943 167.888 214.636 168.201 215.472C168.513 216.301 168.669 217.273 168.669 218.386V219.384H157.615V217.134H165.252C165.252 216.611 165.138 216.148 164.911 215.744C164.684 215.341 164.368 215.026 163.965 214.798C163.567 214.565 163.104 214.449 162.576 214.449C162.025 214.449 161.536 214.577 161.11 214.832C160.689 215.082 160.36 215.42 160.121 215.847C159.882 216.267 159.76 216.736 159.755 217.253V219.392C159.755 220.04 159.874 220.599 160.113 221.071C160.357 221.543 160.701 221.906 161.144 222.162C161.587 222.418 162.113 222.545 162.721 222.545C163.124 222.545 163.493 222.489 163.828 222.375C164.164 222.261 164.451 222.091 164.689 221.864C164.928 221.636 165.11 221.358 165.235 221.028L168.593 221.25C168.422 222.057 168.073 222.761 167.544 223.364C167.022 223.96 166.346 224.426 165.516 224.761C164.692 225.091 163.74 225.256 162.661 225.256ZM176.662 225V207.545H180.292V214.108H180.403C180.562 213.756 180.792 213.398 181.093 213.034C181.4 212.665 181.798 212.358 182.287 212.114C182.781 211.864 183.395 211.739 184.127 211.739C185.082 211.739 185.963 211.989 186.77 212.489C187.576 212.983 188.221 213.73 188.704 214.73C189.187 215.724 189.429 216.972 189.429 218.472C189.429 219.932 189.193 221.165 188.721 222.17C188.255 223.17 187.619 223.929 186.812 224.446C186.011 224.957 185.113 225.213 184.119 225.213C183.414 225.213 182.815 225.097 182.321 224.864C181.832 224.631 181.431 224.338 181.119 223.986C180.806 223.628 180.568 223.267 180.403 222.903H180.241V225H176.662ZM180.216 218.455C180.216 219.233 180.324 219.912 180.539 220.491C180.755 221.071 181.068 221.523 181.477 221.847C181.886 222.165 182.383 222.324 182.968 222.324C183.559 222.324 184.059 222.162 184.468 221.838C184.877 221.509 185.187 221.054 185.397 220.474C185.613 219.889 185.721 219.216 185.721 218.455C185.721 217.699 185.616 217.034 185.406 216.46C185.196 215.886 184.886 215.437 184.477 215.114C184.068 214.79 183.565 214.628 182.968 214.628C182.377 214.628 181.877 214.784 181.468 215.097C181.065 215.409 180.755 215.852 180.539 216.426C180.324 217 180.216 217.676 180.216 218.455ZM191.851 225V211.909H195.482V225H191.851ZM193.675 210.222C193.135 210.222 192.672 210.043 192.286 209.685C191.905 209.321 191.715 208.886 191.715 208.381C191.715 207.881 191.905 207.452 192.286 207.094C192.672 206.73 193.135 206.548 193.675 206.548C194.215 206.548 194.675 206.73 195.056 207.094C195.442 207.452 195.635 207.881 195.635 208.381C195.635 208.886 195.442 209.321 195.056 209.685C194.675 210.043 194.215 210.222 193.675 210.222ZM202.021 207.545V225H198.39V207.545H202.021ZM208.56 207.545V225H204.929V207.545H208.56ZM217.434 225.256C216.088 225.256 214.929 224.983 213.957 224.438C212.991 223.886 212.247 223.108 211.724 222.102C211.201 221.091 210.94 219.895 210.94 218.514C210.94 217.168 211.201 215.986 211.724 214.969C212.247 213.952 212.983 213.159 213.931 212.591C214.886 212.023 216.005 211.739 217.289 211.739C218.153 211.739 218.957 211.878 219.701 212.156C220.451 212.429 221.105 212.841 221.662 213.392C222.224 213.943 222.662 214.636 222.974 215.472C223.287 216.301 223.443 217.273 223.443 218.386V219.384H212.389V217.134H220.025C220.025 216.611 219.912 216.148 219.684 215.744C219.457 215.341 219.142 215.026 218.738 214.798C218.341 214.565 217.877 214.449 217.349 214.449C216.798 214.449 216.309 214.577 215.883 214.832C215.463 215.082 215.133 215.42 214.895 215.847C214.656 216.267 214.534 216.736 214.528 217.253V219.392C214.528 220.04 214.647 220.599 214.886 221.071C215.13 221.543 215.474 221.906 215.917 222.162C216.36 222.418 216.886 222.545 217.494 222.545C217.897 222.545 218.267 222.489 218.602 222.375C218.937 222.261 219.224 222.091 219.463 221.864C219.701 221.636 219.883 221.358 220.008 221.028L223.366 221.25C223.196 222.057 222.846 222.761 222.318 223.364C221.795 223.96 221.119 224.426 220.289 224.761C219.466 225.091 218.514 225.256 217.434 225.256ZM230.636 225.213C229.642 225.213 228.741 224.957 227.934 224.446C227.133 223.929 226.497 223.17 226.025 222.17C225.559 221.165 225.326 219.932 225.326 218.472C225.326 216.972 225.568 215.724 226.051 214.73C226.534 213.73 227.176 212.983 227.977 212.489C228.784 211.989 229.667 211.739 230.627 211.739C231.36 211.739 231.971 211.864 232.46 212.114C232.954 212.358 233.352 212.665 233.653 213.034C233.96 213.398 234.193 213.756 234.352 214.108H234.463V207.545H238.085V225H234.505V222.903H234.352C234.181 223.267 233.94 223.628 233.627 223.986C233.321 224.338 232.92 224.631 232.426 224.864C231.937 225.097 231.341 225.213 230.636 225.213ZM231.787 222.324C232.372 222.324 232.866 222.165 233.27 221.847C233.679 221.523 233.991 221.071 234.207 220.491C234.429 219.912 234.539 219.233 234.539 218.455C234.539 217.676 234.431 217 234.216 216.426C234 215.852 233.687 215.409 233.278 215.097C232.869 214.784 232.372 214.628 231.787 214.628C231.19 214.628 230.687 214.79 230.278 215.114C229.869 215.437 229.559 215.886 229.349 216.46C229.139 217.034 229.034 217.699 229.034 218.455C229.034 219.216 229.139 219.889 229.349 220.474C229.565 221.054 229.875 221.509 230.278 221.838C230.687 222.162 231.19 222.324 231.787 222.324ZM247.036 225.256C245.689 225.256 244.53 224.983 243.559 224.438C242.593 223.886 241.848 223.108 241.326 222.102C240.803 221.091 240.542 219.895 240.542 218.514C240.542 217.168 240.803 215.986 241.326 214.969C241.848 213.952 242.584 213.159 243.533 212.591C244.488 212.023 245.607 211.739 246.891 211.739C247.755 211.739 248.559 211.878 249.303 212.156C250.053 212.429 250.706 212.841 251.263 213.392C251.826 213.943 252.263 214.636 252.576 215.472C252.888 216.301 253.044 217.273 253.044 218.386V219.384H241.99V217.134H249.627C249.627 216.611 249.513 216.148 249.286 215.744C249.059 215.341 248.743 215.026 248.34 214.798C247.942 214.565 247.479 214.449 246.951 214.449C246.4 214.449 245.911 214.577 245.485 214.832C245.064 215.082 244.735 215.42 244.496 215.847C244.257 216.267 244.135 216.736 244.13 217.253V219.392C244.13 220.04 244.249 220.599 244.488 221.071C244.732 221.543 245.076 221.906 245.519 222.162C245.962 222.418 246.488 222.545 247.096 222.545C247.499 222.545 247.868 222.489 248.203 222.375C248.539 222.261 248.826 222.091 249.064 221.864C249.303 221.636 249.485 221.358 249.61 221.028L252.968 221.25C252.797 222.057 252.448 222.761 251.919 223.364C251.397 223.96 250.721 224.426 249.891 224.761C249.067 225.091 248.115 225.256 247.036 225.256ZM259.752 207.545L259.419 219.767H256.3L255.959 207.545H259.752ZM257.86 225.222C257.297 225.222 256.814 225.023 256.411 224.625C256.007 224.222 255.809 223.739 255.814 223.176C255.809 222.619 256.007 222.142 256.411 221.744C256.814 221.347 257.297 221.148 257.86 221.148C258.4 221.148 258.874 221.347 259.283 221.744C259.692 222.142 259.9 222.619 259.905 223.176C259.9 223.551 259.8 223.895 259.607 224.207C259.419 224.514 259.172 224.761 258.865 224.949C258.559 225.131 258.223 225.222 257.86 225.222Z" fill="#616161"/>
</svg>
