<svg width="45" height="45" viewBox="0 0 45 45" fill="none" xmlns="http://www.w3.org/2000/svg">
<path d="M16.1719 8.4375C14.8681 8.44268 13.6192 8.9629 12.6973 9.88481C11.7754 10.8067 11.2552 12.0556 11.25 13.3594C11.25 16.0622 13.4691 18.2812 16.1719 18.2812C18.8747 18.2812 21.0938 16.0622 21.0938 13.3594C21.0938 10.6566 18.8747 8.4375 16.1719 8.4375ZM28.8281 8.4375C27.5244 8.44268 26.2755 8.9629 25.3536 9.88481C24.4317 10.8067 23.9114 12.0556 23.9062 13.3594C23.9062 16.0622 26.1253 18.2812 28.8281 18.2812C31.5309 18.2812 33.75 16.0622 33.75 13.3594C33.75 10.6566 31.5309 8.4375 28.8281 8.4375ZM16.1719 11.25C17.3531 11.25 18.2812 12.1781 18.2812 13.3594C18.2812 14.5406 17.3531 15.4688 16.1719 15.4688C14.9906 15.4688 14.0625 14.5406 14.0625 13.3594C14.0625 12.1781 14.9906 11.25 16.1719 11.25ZM28.8281 11.25C30.0094 11.25 30.9375 12.1781 30.9375 13.3594C30.9375 14.5406 30.0094 15.4688 28.8281 15.4688C27.6469 15.4688 26.7188 14.5406 26.7188 13.3594C26.7188 12.1781 27.6469 11.25 28.8281 11.25ZM9.84375 16.875C6.75 16.875 4.21875 19.4062 4.21875 22.5C4.21875 24.0652 4.88953 25.477 5.93297 26.4994C4.97611 27.1457 4.19165 28.0159 3.64781 29.0345C3.10396 30.0531 2.81721 31.1891 2.8125 32.3438H5.625C5.625 29.9981 7.49813 28.125 9.84375 28.125C12.1894 28.125 14.0625 29.9981 14.0625 32.3438H16.875C16.8703 31.1891 16.5835 30.0531 16.0397 29.0345C15.4959 28.0159 14.7114 27.1457 13.7545 26.4994C14.798 25.477 15.4688 24.0666 15.4688 22.5C15.4688 19.4062 12.9375 16.875 9.84375 16.875ZM16.875 32.3438C15.9961 33.5194 15.4688 34.9973 15.4688 36.5625H18.2812C18.2812 34.2169 20.1544 32.3438 22.5 32.3438C24.8456 32.3438 26.7188 34.2169 26.7188 36.5625H29.5312C29.5292 35.0415 29.036 33.5618 28.125 32.3438C27.6469 31.7067 27.0703 31.1625 26.4108 30.7181C27.4542 29.6958 28.125 28.2853 28.125 26.7188C28.125 23.625 25.5938 21.0938 22.5 21.0938C19.4062 21.0938 16.875 23.625 16.875 26.7188C16.875 28.2839 17.5458 29.6958 18.5892 30.7181C17.9302 31.1594 17.3506 31.7091 16.875 32.3438ZM28.125 32.3438H30.9375C30.9375 29.9981 32.8106 28.125 35.1562 28.125C37.5019 28.125 39.375 29.9981 39.375 32.3438H42.1875C42.1828 31.1891 41.896 30.0531 41.3522 29.0345C40.8083 28.0159 40.0239 27.1457 39.067 26.4994C40.1105 25.477 40.7812 24.0666 40.7812 22.5C40.7812 19.4062 38.25 16.875 35.1562 16.875C32.0625 16.875 29.5312 19.4062 29.5312 22.5C29.5312 24.0652 30.202 25.477 31.2455 26.4994C30.2886 27.1457 29.5042 28.0159 28.9603 29.0345C28.4165 30.0531 28.1297 31.1891 28.125 32.3438ZM9.84375 19.6875C11.4145 19.6875 12.6562 20.9292 12.6562 22.5C12.6562 24.0708 11.4145 25.3125 9.84375 25.3125C8.27297 25.3125 7.03125 24.0708 7.03125 22.5C7.03125 20.9292 8.27297 19.6875 9.84375 19.6875ZM35.1562 19.6875C36.727 19.6875 37.9688 20.9292 37.9688 22.5C37.9688 24.0708 36.727 25.3125 35.1562 25.3125C33.5855 25.3125 32.3438 24.0708 32.3438 22.5C32.3438 20.9292 33.5855 19.6875 35.1562 19.6875ZM22.5 23.9062C24.0708 23.9062 25.3125 25.148 25.3125 26.7188C25.3125 28.2895 24.0708 29.5312 22.5 29.5312C20.9292 29.5312 19.6875 28.2895 19.6875 26.7188C19.6875 25.148 20.9292 23.9062 22.5 23.9062Z" fill="#757575"/>
</svg>
